<svg width="144" height="28" viewBox="0 0 144 28" fill="none" xmlns="http://www.w3.org/2000/svg">
<g clip-path="url(#clip0_850_117)">
<path d="M51.0832 18.7941C50.0962 22.4201 47.3272 24.7461 43.1532 24.7461C37.8032 24.7461 34.1602 20.9221 34.1602 14.9721C34.1602 8.78406 38.5622 4.33105 44.7462 4.33105C47.2132 4.33105 48.8822 4.88205 49.9072 5.27605L50.4762 10.9521L50.0962 11.0311C47.8962 7.44406 45.8852 5.11905 44.2152 5.11905C42.0522 5.11905 40.3072 7.91706 40.3072 12.4101C40.3072 18.0851 43.1912 20.2921 46.4922 20.2921C48.3132 20.2921 49.9832 19.6221 50.8932 18.6761L51.0832 18.7941Z" fill="#14171F"/>
<path d="M66.3289 14.5781C66.3289 8.98105 65.1149 5.07905 62.4209 5.07905C59.6889 5.07905 58.5129 8.98105 58.5129 14.5781C58.5129 20.1741 59.7269 23.9971 62.4209 23.9971C65.1149 23.9971 66.3289 20.1741 66.3289 14.5781ZM52.2139 14.5781C52.2139 9.10005 56.8429 4.33105 62.4209 4.33105C67.9989 4.33105 72.6279 9.10005 72.6279 14.5781C72.6279 20.0561 67.9989 24.7461 62.4209 24.7461C56.8429 24.7461 52.2139 20.0561 52.2139 14.5781Z" fill="#14171F"/>
<path d="M82.3731 24.1538H74.4431V24.0758C75.0501 22.1438 75.3911 20.5678 75.3911 17.2178L75.3531 12.7638C75.3531 9.84779 74.8221 8.15379 73.4561 6.49779V6.41879L81.3111 4.13379V8.07479L81.4631 8.11379C82.4871 6.45879 84.4601 4.32979 87.8371 4.32979C91.1761 4.32979 93.5291 6.45879 93.5291 9.80879V17.1788C93.5291 20.5288 93.7951 22.1438 94.4391 24.0758V24.1538H86.5091V24.0758C87.1541 22.1438 87.4201 20.4498 87.4201 17.2578V10.2028C87.4201 8.54779 86.6231 7.28579 84.8021 7.28579C83.3981 7.28579 82.1831 8.15379 81.4631 9.21679V17.2178C81.4631 20.4888 81.7661 22.1438 82.3731 24.0758V24.1538Z" fill="#14171F"/>
<path d="M97.498 19.2682V5.82816H95.373V5.47416L103.189 0.38916H103.607V4.96116H117.272V5.82816H103.607V19.1102C103.607 21.4742 104.821 22.2232 106.339 22.2232C107.667 22.2232 108.463 21.5932 108.501 21.5532L108.615 21.6722C107.78 23.2092 105.731 24.7462 102.734 24.7462C99.66 24.7462 97.498 23.2092 97.498 19.2682Z" fill="#14171F"/>
<path d="M110.406 24.1541V24.0751C111.013 22.1441 111.317 20.5681 111.317 17.2181V12.7641C111.317 9.84807 111.496 7.43507 110.13 5.77907V5.70107L117.274 4.95907V8.90207C118.868 7.20807 120.727 4.09407 123.99 4.33007L123.307 10.9511H123.118C122.169 9.61107 120.12 8.62607 119.171 8.62607C118.602 8.62607 117.957 9.09907 117.426 9.76907V17.2181C117.426 20.4891 117.729 22.1441 118.337 24.0751V24.1541H110.406Z" fill="#14171F"/>
<path d="M134.008 20.9231V14.2091C131.352 14.9571 129.872 16.9031 129.872 18.7551C129.872 20.2921 130.745 21.3171 132.415 21.3171C133.022 21.3171 133.591 21.1591 134.008 20.9231ZM134.122 21.6721C133.06 23.2871 131.238 24.7451 128.81 24.7451C126.495 24.7451 124.522 22.9971 124.522 20.0661C124.522 15.8101 129.72 14.3271 134.008 13.3811V11.3061C134.008 9.02008 133.06 7.91708 130.365 7.91708C128.886 7.91708 127.14 8.23208 125.433 8.98108L125.281 8.70508C127.102 6.41908 130.1 4.33008 134.198 4.33008C138.258 4.33008 140.117 6.41908 140.117 9.49308V19.6221C140.117 20.5681 140.535 21.3961 141.749 21.3961C142.166 21.3961 142.697 21.2771 143.191 20.9231L143.267 21.0801C142.735 22.3811 141.407 24.7061 138.182 24.7061C135.868 24.7061 134.463 23.4451 134.122 21.6721Z" fill="#14171F"/>
<path d="M102.397 5.66112H117.275V4.72412H102.397V5.66112Z" fill="#14171F"/>
<path d="M15.0361 13.043H27.0991C27.2361 13.043 27.3461 12.928 27.3461 12.786V12.402C27.3461 12.285 27.2701 12.182 27.1611 12.153C21.5041 10.643 17.0651 6.06 15.5761 0.192C15.5471 0.079 15.4491 0 15.3361 0H15.0361C14.8991 0 14.7891 0.115 14.7891 0.257V12.786C14.7891 12.928 14.8991 13.043 15.0361 13.043Z" fill="#14171F"/>
<path d="M15.0361 27.5811H15.4061C15.5191 27.5811 15.6181 27.5021 15.6461 27.3881C17.0991 21.5131 21.5121 16.9021 27.1621 15.3551C27.2711 15.3261 27.3461 15.2231 27.3461 15.1071V14.7951C27.3461 14.6531 27.2361 14.5381 27.0991 14.5381H15.0361C14.8991 14.5381 14.7891 14.6531 14.7891 14.7951V27.3241C14.7891 27.4661 14.8991 27.5811 15.0361 27.5811Z" fill="#14171F"/>
<path d="M12.7873 27.5811H13.0873C13.2233 27.5811 13.3343 27.4661 13.3343 27.3241V14.7951C13.3343 14.6531 13.2233 14.5381 13.0873 14.5381H1.02434C0.887344 14.5381 0.777344 14.6531 0.777344 14.7951V15.1791C0.777344 15.2971 0.853344 15.3991 0.962344 15.4281C6.61934 16.9381 11.0583 21.5211 12.5473 27.3901C12.5763 27.5031 12.6743 27.5811 12.7873 27.5811Z" fill="#14171F"/>
<path d="M1.02434 13.043H13.0873C13.2233 13.043 13.3343 12.928 13.3343 12.786V0.257C13.3343 0.115 13.2233 0 13.0873 0H12.7173C12.6043 0 12.5053 0.08 12.4773 0.193C11.0243 6.068 6.61134 10.679 0.961344 12.226C0.852344 12.256 0.777344 12.358 0.777344 12.475V12.786C0.777344 12.928 0.887344 13.043 1.02434 13.043Z" fill="#14171F"/>
</g>
<defs>
<clipPath id="clip0_850_117">
<rect width="144" height="28" fill="white"/>
</clipPath>
</defs>
</svg>
