<svg xmlns="http://www.w3.org/2000/svg" width="159" height="48" viewBox="0 0 159 48" fill="none"><path fill="#1F2937" d="M84.172 30.604a7.374 7.374 0 0 1-2.98-.564 7.496 7.496 0 0 1-2.517-1.72c-1.511-1.541-2.24-3.39-2.24-5.703a8.076 8.076 0 0 1 1.297-4.42 7.845 7.845 0 0 1 3.48-2.944 7.665 7.665 0 0 1 4.498-.481 7.757 7.757 0 0 1 4.005 2.142c1.511 1.542 2.24 3.391 2.24 5.703 0 2.312-.732 4.168-2.24 5.703a7.449 7.449 0 0 1-2.537 1.734 7.326 7.326 0 0 1-3.006.55Zm25.898 0a7.368 7.368 0 0 1-2.982-.563 7.497 7.497 0 0 1-2.519-1.721c-1.511-1.541-2.239-3.39-2.239-5.703 0-2.312.728-4.164 2.239-5.703a7.839 7.839 0 0 1 5.519-2.284c2.061 0 4.041.82 5.519 2.284 1.511 1.542 2.239 3.391 2.239 5.703 0 2.312-.731 4.168-2.239 5.703a7.451 7.451 0 0 1-2.535 1.732 7.323 7.323 0 0 1-3.002.552Zm33.789-7.987a8.036 8.036 0 0 1-.552 3.107 7.91 7.91 0 0 1-1.703 2.636 7.96 7.96 0 0 1-5.562 2.279 7.96 7.96 0 0 1-5.563-2.279 7.913 7.913 0 0 1-1.7-2.646 8.02 8.02 0 0 1-.545-3.115 7.818 7.818 0 0 1 .537-3.094 7.696 7.696 0 0 1 1.708-2.615 7.332 7.332 0 0 1 2.525-1.765 7.209 7.209 0 0 1 3.012-.56c2.267 0 4.095.759 5.591 2.33 1.496 1.573 2.252 3.422 2.252 5.722Zm-78.183-.145a7.819 7.819 0 0 1-.536 3.09 7.694 7.694 0 0 1-1.703 2.613c-1.511 1.541-3.325 2.284-5.591 2.284-2.267 0-4.086-.746-5.594-2.284a7.694 7.694 0 0 1-1.704-2.613 7.819 7.819 0 0 1-.536-3.09 7.946 7.946 0 0 1 .561-3.071 7.823 7.823 0 0 1 1.697-2.602 7.646 7.646 0 0 1 2.56-1.714 7.522 7.522 0 0 1 3.016-.554 7.521 7.521 0 0 1 3.014.555c.957.39 1.828.973 2.56 1.714a7.821 7.821 0 0 1 1.695 2.601c.388.975.58 2.02.561 3.071ZM143.86 0v12.617c-2.098-2.327-4.899-3.505-8.357-3.505a11.92 11.92 0 0 0-4.938 1.003 12.124 12.124 0 0 0-4.113 2.961 13.298 13.298 0 0 0-3.413 6.517 13.12 13.12 0 0 0-3.557-6.575c-2.538-2.59-5.706-3.906-9.411-3.906-3.705 0-6.87 1.316-9.411 3.906a12.995 12.995 0 0 0-3.518 6.572 13.145 13.145 0 0 0-3.557-6.572c-2.542-2.59-5.706-3.906-9.412-3.906-3.705 0-6.87 1.316-9.41 3.906a13.013 13.013 0 0 0-3.628 7.173V9.747h-5.458v2.867c-2.094-2.324-4.88-3.502-8.308-3.502a12.001 12.001 0 0 0-4.971.97 12.207 12.207 0 0 0-4.159 2.942 13.065 13.065 0 0 0-2.806 4.338 13.274 13.274 0 0 0-.924 5.11 13.511 13.511 0 0 0 .93 5.126 13.305 13.305 0 0 0 2.794 4.366 12.212 12.212 0 0 0 4.161 2.945 12.004 12.004 0 0 0 4.975.97c3.406 0 6.193-1.193 8.308-3.552v1.452c0 4.239-2.72 6.782-7.308 6.782-3.602 0-6.017-1.233-7.18-3.699l-.303-.66-4.835 2.775.302.588c2.073 4.073 6.308 6.317 11.923 6.317 3.47 0 6.507-1.07 9.027-3.178 2.52-2.109 3.83-5.124 3.83-8.912v-8.746a13.003 13.003 0 0 0 3.626 7.17c2.542 2.593 5.706 3.906 9.411 3.906 3.706 0 6.87-1.313 9.412-3.905a13.133 13.133 0 0 0 3.557-6.573 12.982 12.982 0 0 0 3.518 6.573c2.541 2.592 5.706 3.905 9.411 3.905 3.705 0 6.873-1.313 9.411-3.905a13.157 13.157 0 0 0 3.557-6.563 13.284 13.284 0 0 0 3.413 6.553 12.088 12.088 0 0 0 4.112 2.936 11.883 11.883 0 0 0 4.927.98c3.457 0 6.259-1.175 8.357-3.503v2.87h5.503V0h-5.488ZM14.096 3.222c-4.636-.388-6.882 1.56-6.882 6.24v.973h6.882v3.13H7.214v21.238H4.062V13.564H0v-3.129h4.062v-.974c0-6.378 3.584-9.796 10.034-9.359v3.12ZM16.018 34.8V10.447h3.143V34.8h-3.143Zm-.049-30.21a2.36 2.36 0 0 1-.63-1.201 2.39 2.39 0 0 1 .131-1.356c.175-.428.47-.795.848-1.053a2.268 2.268 0 0 1 2.555 0c.379.258.673.625.847 1.053.174.429.22.9.131 1.356a2.36 2.36 0 0 1-.63 1.201 2.283 2.283 0 0 1-.747.517 2.247 2.247 0 0 1-2.517-.52l.012.003ZM41.62 19.84v14.963h-3.156V19.84c0-4.338-2.342-6.871-6.498-6.871-4.588 0-7.74 2.876-7.74 9.062v12.772h-3.155V10.435h3.155v3.8c1.77-2.926 4.445-4.383 8.027-4.37 5.782 0 9.366 3.883 9.366 9.975Z"></path><path fill="#0EA56E" d="M108.882 42.269a16.822 16.822 0 0 1-5.465 3.727 16.547 16.547 0 0 1-12.894 0 16.822 16.822 0 0 1-5.465-3.727h23.824Z"></path><path fill="#1F2937" d="M155.243 7.975a3.637 3.637 0 0 1-1.435-.293 3.773 3.773 0 0 1-1.687-1.412 3.888 3.888 0 0 1 0-4.257c.136-.21.293-.406.469-.583.173-.178.364-.338.568-.477.206-.133.423-.246.65-.336a3.718 3.718 0 0 1 2.874-.003c.227.097.444.216.65.354a3.894 3.894 0 0 1 1.033 1.045c.139.207.255.428.348.66a3.895 3.895 0 0 1-.813 4.18 3.829 3.829 0 0 1-1.209.829 3.649 3.649 0 0 1-1.448.293Zm0-6.918a2.94 2.94 0 0 0-1.154.235 2.98 2.98 0 0 0-.982.669 3.06 3.06 0 0 0-.656 1.001 3.084 3.084 0 0 0-.23 1.178c-.002.207.018.414.058.616a3.075 3.075 0 0 0 .453 1.113c.219.338.502.628.834.851a3.01 3.01 0 0 0 1.088.462c.39.078.792.078 1.182 0 .194-.04.384-.099.568-.175.365-.158.697-.385.979-.67.28-.287.502-.627.656-1.001.076-.187.134-.381.172-.58.04-.202.06-.41.058-.616a3.109 3.109 0 0 0-.23-1.18 3.093 3.093 0 0 0-1.115-1.384 2.98 2.98 0 0 0-1.088-.46 2.93 2.93 0 0 0-.593-.059Z"></path><path fill="#1F2937" d="M154.636 2.811v1.14h.768a.539.539 0 0 0 .37-.172.558.558 0 0 0 .146-.388.564.564 0 0 0-.142-.395.541.541 0 0 0-.374-.175l-.768-.01Zm1.333 3.15-.765-1.337h-.568v1.34h-.744V2.1h1.512c.286-.01.568.08.795.258a1.274 1.274 0 0 1 .353 1.562c-.128.262-.342.47-.604.588l.837 1.455h-.816Z"></path></svg>