<svg xmlns="http://www.w3.org/2000/svg" viewBox="0 0 174.24 33.59"><defs><style>.cls-1{fill:#03a9f4;}</style></defs><title>freelo-logo</title><g id="Layer_2" data-name="Layer 2"><g id="Layer_1-2" data-name="Layer 1"><path d="M174.24,30a3.56,3.56,0,0,1-3.55,3.56A3.55,3.55,0,1,1,174.24,30Zm-.6,0a2.94,2.94,0,1,0-3,2.94A2.91,2.91,0,0,0,173.64,30Zm-2.17.49.82,1.18h-.69l-.66-1.07h-1V31.7h-.6V28.16h1.42c.92,0,1.43.44,1.43,1.21A1.13,1.13,0,0,1,171.47,30.51Zm-.69-.39c.54,0,.87-.27.87-.74s-.32-.72-.87-.72H170v1.46Z"/><rect class="cls-1" x="12.91" y="2.47" width="4.93" height="30.76" transform="translate(-2.47 33.23) rotate(-90)"/><rect class="cls-1" x="18.8" y="21.27" width="4.93" height="19" transform="translate(-9.51 52.03) rotate(-90)"/><rect class="cls-1" x="22.42" y="-0.94" width="4.93" height="11.76" transform="translate(19.94 29.82) rotate(-90)"/><path d="M43.94,7.42v8H56v4.93H43.94V33.23H38.74V2.47H59.25l0,4.94Z"/><path d="M74.58,14.44a6.54,6.54,0,0,0-5.5,2.38,10.12,10.12,0,0,0-1.85,6.38v10H62.3V9.82h4.93v4.71a10.21,10.21,0,0,1,3.23-3.61A7.79,7.79,0,0,1,74.8,9.47l0,5Z"/><path d="M100.25,23.68H81.9a5.33,5.33,0,0,0,2.33,4.11,9.07,9.07,0,0,0,11.62-1.21l2.82,3.08a13.09,13.09,0,0,1-9.86,3.92,11.73,11.73,0,0,1-8.38-3.28A11.56,11.56,0,0,1,77,21.51a11.38,11.38,0,0,1,3.52-8.78,11.82,11.82,0,0,1,8.3-3.26,12,12,0,0,1,8.12,2.88,9.94,9.94,0,0,1,3.34,7.94ZM81.9,19.81H95.32a5.64,5.64,0,0,0-1.85-4.53,6.76,6.76,0,0,0-4.55-1.58,7.8,7.8,0,0,0-4.86,1.65A5.33,5.33,0,0,0,81.9,19.81Z"/><path d="M126.82,23.68H108.47a5.33,5.33,0,0,0,2.33,4.11,9.07,9.07,0,0,0,11.62-1.21l2.82,3.08a13.09,13.09,0,0,1-9.86,3.92A11.73,11.73,0,0,1,107,30.31a11.56,11.56,0,0,1-3.45-8.8,11.38,11.38,0,0,1,3.52-8.78,11.82,11.82,0,0,1,8.3-3.26,12,12,0,0,1,8.12,2.88,9.94,9.94,0,0,1,3.34,7.94Zm-18.35-3.87h13.42A5.64,5.64,0,0,0,120,15.28a6.76,6.76,0,0,0-4.56-1.58,7.8,7.8,0,0,0-4.86,1.65A5.33,5.33,0,0,0,108.47,19.81Z"/><path d="M136.54,33.23h-4.93V0h4.93Z"/><path d="M162.35,30.09a12.82,12.82,0,0,1-17.6,0,11.6,11.6,0,0,1-3.52-8.56A11.6,11.6,0,0,1,144.74,13a12.82,12.82,0,0,1,17.6,0,11.61,11.61,0,0,1,3.52,8.56A11.61,11.61,0,0,1,162.35,30.09Zm-14.11-3a7.66,7.66,0,0,0,10.61,0,7.56,7.56,0,0,0,2.09-5.52A7.56,7.56,0,0,0,158.85,16a7.65,7.65,0,0,0-10.61,0,7.56,7.56,0,0,0-2.09,5.52A7.56,7.56,0,0,0,148.24,27.05Z"/></g></g></svg>