<svg xmlns="http://www.w3.org/2000/svg" width="200" height="44" viewBox="0 0 200 44" fill="none">
<path d="M16.4584 0V41.0001C16.4584 42.6572 17.7968 44 19.4485 44C21.1001 44 22.4386 42.6572 22.4386 41.0001V0H16.4584Z" fill="#853CFF"/>
<path d="M2.99207 34.7089L38.376 14.194C39.806 13.365 40.2955 11.5301 39.4692 10.0954C38.6429 8.66068 36.8139 8.16959 35.3839 8.99861L0 29.5135L2.99207 34.7089Z" fill="#853CFF"/>
<path d="M39.5746 30.6893L4.86433 9.04801C3.46186 8.17355 1.61816 8.60535 0.746539 10.0124C-0.125082 11.4195 0.305313 13.2692 1.70779 14.1436L36.418 35.785L39.5746 30.6893Z" fill="#853CFF"/>
<path d="M200 5.1377H194.074V38.8121H200V5.1377Z" fill="#141416"/>
<path d="M169.283 28.0675L160.102 5.1377H153.048V38.8121H158.84V16.6293L166.688 36.1669H171.878L179.726 16.6293V38.8121H185.518V5.1377H178.463L169.283 28.0675Z" fill="#141416"/>
<path d="M134.562 5.1377H130.061L117.281 38.8121H123.718L126.366 31.4142H138.29L140.927 38.8121H147.342L134.562 5.1377ZM128.294 26.03L132.332 14.7519L136.349 26.03H128.294Z" fill="#141416"/>
<path d="M67.4989 24.7574H79.4652C78.2272 29.7482 73.6859 33.3854 68.4709 33.3854C62.2238 33.3854 57.1418 28.2869 57.1418 22.0193C57.1418 15.7518 62.1726 10.512 68.4197 10.512C71.4403 10.512 74.723 11.7965 77.1852 14.662L80.9277 10.8084C77.6776 7.05362 72.9492 5.17623 68.4719 5.17623C59.215 5.17623 51.6836 12.7322 51.6836 22.0193C51.6836 31.3065 59.215 38.8625 68.4719 38.8625C72.7118 38.8625 76.7233 37.2746 79.802 34.4378V38.8071H85.2612V19.2803H67.4989V24.7574Z" fill="#141416"/>
<path d="M112.465 33.0683H100.089V5.1377H94.1626V38.8121H112.465V33.0683Z" fill="#141416"/>
</svg>