<svg xmlns="http://www.w3.org/2000/svg" width="237" height="97" viewBox="0 0 237 97" fill="none"> <path fill-rule="evenodd" clip-rule="evenodd" d="M143.419 49.4687V67.1094H147.203H150.988L150.956 49.5027L150.923 31.8961L147.171 31.8621L143.419 31.8281V49.4687ZM159.18 32.0257C155.562 33.1842 155.274 37.9242 158.727 39.4738C160.58 40.3051 162.789 39.8804 164.043 38.4519C164.608 37.8087 164.815 37.3674 164.947 36.5275C165.243 34.6375 164.392 33.0294 162.68 32.2426C161.781 31.8295 160.114 31.7263 159.18 32.0257ZM58.3348 32.5493C58.2826 32.6017 58.2397 40.399 58.2397 49.8769V67.1094H62.473H66.7063V61.1443V55.1792H67.9607H69.215L72.9218 61.1443L76.6285 67.1094H81.5512H86.4739L85.3468 65.4738C84.7269 64.5743 82.7056 61.6477 80.855 58.9704L77.4904 54.1025L78.4162 53.6443C79.7157 53.0011 80.4927 52.4446 81.475 51.453C82.764 50.1518 83.5217 48.7499 84.1062 46.5843C84.4577 45.2823 84.427 42.2393 84.0482 40.8326C82.8804 36.496 79.9289 33.9087 74.9163 32.8277C73.7844 32.5834 73.1548 32.5609 66.0638 32.5094C61.8652 32.479 58.3871 32.497 58.3348 32.5493ZM196.912 40.4268V44.4036H193.897H190.883V47.4823V50.5611H193.897H196.912V58.8352V67.1094H200.568H204.224V58.8352V50.5611H207.239H210.253V47.4823V44.4036H207.239H204.224V40.4268V36.4501H200.568H196.912V40.4268ZM72.2635 39.8489C73.7467 40.2353 74.7246 40.9806 75.3012 42.164C75.564 42.7037 75.6119 42.9945 75.6165 44.0829C75.6228 45.592 75.3678 46.3058 74.5084 47.1838C73.4292 48.2864 72.0587 48.6302 68.7268 48.6343L66.7063 48.6368V44.147V39.6571H69.1167C70.842 39.6571 71.7364 39.7117 72.2635 39.8489ZM176.731 43.6411C174.679 43.8795 172.679 44.7766 171.437 46.0155C170.144 47.3053 169.592 48.7454 169.59 50.8362C169.587 52.8483 170.159 54.2547 171.505 55.5449C172.468 56.468 173.559 57.0383 175.607 57.6877C176.636 58.014 178.026 58.4551 178.696 58.6679C180.882 59.3623 181.518 59.7972 181.518 60.5978C181.518 61.2741 181.35 61.5413 180.712 61.8779C179.966 62.2719 178.278 62.2669 176.836 61.8665C175.409 61.4705 173.61 60.5695 172.811 59.8516C172.418 59.4979 172.092 59.295 172.025 59.3621C171.963 59.4251 171.22 60.3991 170.375 61.5266L168.839 63.5765L169.053 63.9466C169.886 65.3853 173.671 67.2765 176.677 67.7559C178.096 67.9823 180.906 67.851 182.215 67.4972C186.039 66.4634 188.189 63.8712 188.189 60.2949C188.189 58.3424 187.626 57.0453 186.202 55.7126C184.958 54.5488 183.929 54.0971 179.891 52.9429C177.167 52.1641 175.998 51.4096 176.202 50.5611C176.665 48.6302 181.003 48.941 184.016 51.1211C184.366 51.3748 184.692 51.5401 184.739 51.4887C184.919 51.2914 187.163 46.9295 187.163 46.7764C187.163 46.5238 185.534 45.3299 184.532 44.8481C183.311 44.2605 181.495 43.7976 179.786 43.6377C178.232 43.4924 178.007 43.4926 176.731 43.6411ZM125.633 43.8844C123.417 44.1401 120.318 45.0242 118.175 46.0123L117.241 46.4431L118.222 48.4059C118.762 49.4854 119.346 50.6124 119.519 50.9104L119.835 51.4521L120.691 51.0217C122.651 50.0363 125.268 49.4646 127.319 49.5741C130.278 49.732 131.232 50.7623 131.232 53.7993C131.232 54.7241 131.21 54.8127 131.007 54.726C130.186 54.3753 128.959 53.9658 128.025 53.7305C127.101 53.4981 126.571 53.4568 124.561 53.4606C122.527 53.4645 122.043 53.5051 121.173 53.7449C118.425 54.5025 116.687 55.9502 115.945 58.0975C115.527 59.3067 115.528 61.7879 115.946 62.9298C116.476 64.3765 117.61 65.7369 118.93 66.5098C120.362 67.3477 122.692 67.8417 124.486 67.6882C126.958 67.4765 128.864 66.6662 130.302 65.2166L131.232 64.2787V65.7582V67.2377H134.824H138.416V58.798C138.416 49.7392 138.41 49.6513 137.746 48.252C137.361 47.4424 135.704 45.8334 134.727 45.3214C133.695 44.7804 132.364 44.3303 131.054 44.0785C129.814 43.8401 126.915 43.7365 125.633 43.8844ZM97.4946 44.3572C92.8072 45.2206 89.7942 47.8587 88.4312 52.2929C88.0951 53.3862 88.0763 53.58 88.0763 55.9489C88.0763 58.3165 88.0952 58.5117 88.43 59.597C89.0395 61.5734 89.8157 62.9029 91.1392 64.2377C92.4433 65.5531 93.6948 66.3578 95.3901 66.9712C97.1943 67.624 98.4353 67.8062 101.022 67.7979C104.356 67.7871 106.449 67.2968 108.658 66.0094C109.501 65.5183 111.915 63.2298 111.837 62.996C111.815 62.9279 110.502 62.2385 108.921 61.4641L106.046 60.0561L105.304 60.7634C104.019 61.9888 102.695 62.4249 100.518 62.3399C99.4667 62.2988 99.0912 62.2271 98.5047 61.9561C97.1084 61.3105 96.1691 60.0884 95.7768 58.4073L95.5929 57.6183L104.272 57.5854L112.952 57.5524L112.942 55.4358C112.931 52.8962 112.674 51.6389 111.801 49.8555C110.498 47.1914 108.226 45.4324 104.982 44.5752C103.859 44.2786 103.424 44.2358 101.15 44.1986C99.2216 44.167 98.3136 44.2064 97.4946 44.3572ZM221.7 44.332C218.638 44.9105 216.243 46.2134 214.587 48.2007C213.788 49.1602 212.786 51.2026 212.423 52.6136C212.081 53.9462 211.952 56.6095 212.164 57.9734C212.899 62.6973 215.916 66.054 220.554 67.3087C222.334 67.7903 224.628 67.9648 226.704 67.7766C230.432 67.4385 232.787 66.4042 234.927 64.1643C235.467 63.5984 235.91 63.0777 235.91 63.0072C235.91 62.9366 234.605 62.2451 233.011 61.4702L230.113 60.0617L229.503 60.6873C228.811 61.3985 227.697 62.0067 226.699 62.2186C225.743 62.4216 223.888 62.3981 223.131 62.1734C221.415 61.6638 220.107 60.0776 219.795 58.1293L219.714 57.6183L228.357 57.5854L237 57.5524L236.986 55.2433C236.973 53.1309 236.942 52.8359 236.626 51.7797C235.475 47.9337 233.057 45.636 229.047 44.5788C227.907 44.2782 227.478 44.2359 225.198 44.1982C223.399 44.1684 222.354 44.2084 221.7 44.332ZM157.016 55.7565V67.1094H160.672H164.329V55.7565V44.4036H160.672H157.016V55.7565ZM102.705 49.6067C103.621 50.075 104.289 50.91 104.666 52.0573C105.148 53.5259 105.616 53.3833 100.314 53.3833H95.6931L95.7727 53.0305C95.9184 52.3854 96.5525 51.1326 96.9795 50.6462C97.8968 49.6015 99.1088 49.1373 100.785 49.1888C101.793 49.2198 102.064 49.2789 102.705 49.6067ZM226.749 49.5716C227.847 50.1291 228.564 51.1386 228.907 52.6096L229.088 53.3833H224.429H219.769L219.93 52.7739C220.388 51.0396 221.584 49.7756 223.201 49.3172C223.554 49.2171 224.246 49.1687 224.942 49.1956C225.871 49.2314 226.223 49.3047 226.749 49.5716ZM129.103 57.7601C129.52 57.8324 130.16 58.0038 130.527 58.1408L131.193 58.3901L131.09 59.041C130.866 60.4582 130.005 61.6169 128.696 62.2614C127.978 62.615 127.664 62.6911 126.766 62.7293C125.455 62.7853 124.732 62.5981 124.07 62.0314C123.135 61.231 122.885 60.0416 123.419 58.9381C124.039 57.6577 126.079 57.2348 129.103 57.7601Z" fill="black"/> <path d="M38.1667 19.0249H13.7375C12.6677 19.0249 11.7333 19.7134 11.3948 20.7124L0.371855 54.3949C0.155188 55.0699 0.65623 55.7719 1.37394 55.7719H14.0625C14.7802 55.7719 15.2948 56.4739 15.0646 57.1489L2.56561 95.2864C2.30831 96.0559 3.33748 96.5689 3.81144 95.9074L36.1083 50.2504C36.5958 49.5484 36.0948 48.5899 35.2416 48.5899H21.3073C20.4542 48.5899 19.9531 47.6314 20.4406 46.9294L39.0333 20.6854C39.5208 19.9834 39.0198 19.0249 38.1667 19.0249Z" fill="url(#paint0_linear_11362_120488)"/> <defs> <linearGradient id="paint0_linear_11362_120488" x1="19.7727" y1="19.0249" x2="19.7727" y2="96.2117" gradientUnits="userSpaceOnUse"> <stop stop-color="#9B35C5"/> <stop offset="0.900055" stop-color="#00ACFF"/> </linearGradient> </defs> </svg>