<svg xmlns="http://www.w3.org/2000/svg" width="150" height="29" fill="none"><path d="M146.804 14.793h-3.938c.125-1.338.917-2.278 2.157-2.278 1.191 0 1.808.82 1.808 1.885-.005.147-.005.245-.027.393zm-1.71 7.287c2.256 0 4.31-.82 4.906-3.146l-2.824-.967c-.372 1.213-1.115 1.562-2.005 1.562-1.513 0-2.327-1.142-2.404-2.9h7.063a7.36 7.36 0 00.148-1.486c0-2.95-1.584-5.08-4.835-5.08-3.446 0-5.577 2.228-5.577 6.172 0 3.687 2.256 5.845 5.528 5.845zM132.962 19.7c-.967 0-2.18-.645-2.18-2.6v-1.683c0-1.737 1.191-2.699 2.404-2.699 1.464 0 2.376.989 2.376 3.37.005 2.42-1.185 3.611-2.6 3.611zm1.065 2.381c3.097 0 4.884-2.529 4.884-6.293 0-3.643-1.612-5.725-4.409-5.725-1.633 0-3.07.667-3.693 2.404V5.228h-3.321V21.78h2.327l.82-1.66c.344 1.092 1.436 1.96 3.392 1.96zm-13.231-2.578c-1.562 0-2.278-1.093-2.278-3.469 0-2.256.743-3.321 2.278-3.321 1.513 0 2.256 1.065 2.256 3.321 0 2.376-.715 3.469-2.256 3.469zm0 2.578c3.322 0 5.529-2.18 5.529-6.047 0-3.89-2.207-5.97-5.529-5.97-3.343 0-5.55 2.08-5.55 5.97 0 3.862 2.207 6.047 5.55 6.047zm-8.729-.076c.644 0 1.262-.126 1.906-.295l.175-2.775a2.247 2.247 0 01-.89.174c-.596 0-1.044-.273-1.044-.988V5.228h-3.321V19.08c0 2.152 1.513 2.923 3.174 2.923zm-10.177 2.802c-1.759 0-2.677-.42-2.677-1.311 0-.666.667-.989 1.612-.989h2.824c.989 0 1.415.273 1.415.967 0 .912-.869 1.333-3.174 1.333zm.076-8.948c-1.163 0-1.737-.743-1.737-1.759 0-1.142.568-1.759 1.737-1.786 1.142 0 1.759.568 1.759 1.786 0 1.142-.622 1.76-1.759 1.76zm-.448 11.15c3.273 0 6.643-.842 6.643-4.114 0-1.983-1.464-3.37-4.037-3.37h-3.272c-.595 0-.918-.295-.918-.694 0-.372.148-.694.547-.94.273.099.841.148 1.387.148 2.923 0 5.255-1.29 5.255-3.939 0-.792-.175-1.486-.519-2.032.94-.273 1.956-1.043 2.081-2.158l-2.6-.868c-.246.917-.371 1.24-.868 1.737-.842-.47-1.956-.721-3.245-.721-3.048 0-5.08 1.387-5.08 4.037 0 1.835.819 2.824 2.376 3.447-1.338.371-1.934 1.36-1.934 2.256 0 1.016.721 1.955 1.857 2.032-2.06.147-3.02.967-3.02 2.305-.006 2.207 2.523 2.873 5.347 2.873zm-11.296-7.31c-.967 0-2.18-.644-2.18-2.6v-1.682c0-1.737 1.19-2.699 2.404-2.699 1.464 0 2.376.989 2.376 3.37 0 2.42-1.191 3.611-2.6 3.611zm1.065 2.382c3.097 0 4.883-2.529 4.883-6.293 0-3.643-1.611-5.725-4.408-5.725-1.633 0-3.07.667-3.693 2.404V5.228h-3.321V21.78h2.327l.82-1.66c.344 1.092 1.43 1.96 3.392 1.96zm-10.838-7.287H76.51c.126-1.338.918-2.278 2.158-2.278 1.19 0 1.808.82 1.808 1.885 0 .147 0 .245-.027.393zm-1.71 7.287c2.256 0 4.31-.82 4.905-3.146l-2.824-.967c-.371 1.213-1.114 1.562-2.004 1.562-1.514 0-2.328-1.142-2.404-2.9h7.063c.099-.47.148-.99.148-1.486 0-2.95-1.585-5.08-4.835-5.08-3.447 0-5.577 2.228-5.577 6.172.005 3.687 2.261 5.845 5.528 5.845zm-17.606-.3l1.737-7.19c.497-2.08.617-4.113.617-4.113h.099s.098 2.033.568 4.086l1.66 7.211h4.906l3.195-14.596h-3.42l-1.633 8.052a43.418 43.418 0 00-.617 4.113h-.098s-.246-2.06-.694-4.14l-1.808-8.03H61.63l-1.786 8.052a49.3 49.3 0 00-.645 4.113h-.098s-.224-2.06-.667-4.14l-1.682-8.031h-3.567l3.223 14.596h4.725v.017z" fill="#000"/><path fill-rule="evenodd" clip-rule="evenodd" d="M8.882 2.671l5.337 10.942-4.206 8.62a4.675 4.675 0 00-.028 4.048L.475 6.774A4.678 4.678 0 018.882 2.67z" fill="url(#paint0_linear)"/><path fill-rule="evenodd" clip-rule="evenodd" d="M19.671 2.43l.006.006a4.666 4.666 0 00-.099 4.294l4.201 8.615L18.42 26.33a4.673 4.673 0 01-6.124 2.213l-.13-.06a4.678 4.678 0 01-2.153-6.255L19.671 2.43z" fill="url(#paint1_linear)"/><path fill-rule="evenodd" clip-rule="evenodd" d="M27.985 2.628l5.353 10.98-4.2 8.625a4.654 4.654 0 00-.04 4.02L19.579 6.73A4.68 4.68 0 0121.73.475a4.685 4.685 0 016.255 2.153z" fill="url(#paint2_linear)"/><path fill-rule="evenodd" clip-rule="evenodd" d="M38.698 2.628l-9.56 19.605a4.68 4.68 0 002.152 6.255 4.68 4.68 0 006.255-2.152l9.56-19.6A4.68 4.68 0 0044.953.48a4.675 4.675 0 00-6.255 2.147z" fill="url(#paint3_linear)"/><defs><linearGradient id="paint0_linear" x1="2.385" y1=".641" x2="11.32" y2="18.178" gradientUnits="userSpaceOnUse"><stop offset=".065" stop-color="#4BEAFB"/><stop offset=".251" stop-color="#49E5F5"/><stop offset=".493" stop-color="#44D5E5"/><stop offset=".766" stop-color="#3CBCCA"/><stop offset=".9" stop-color="#37ADBA"/></linearGradient><linearGradient id="paint1_linear" x1="7.287" y1="21.632" x2="24.891" y2="11.468" gradientUnits="userSpaceOnUse"><stop stop-color="#00D1FF"/><stop offset=".168" stop-color="#00CAF8"/><stop offset=".416" stop-color="#00B8E4"/><stop offset=".714" stop-color="#009AC3"/><stop offset=".9" stop-color="#0084AB"/></linearGradient><linearGradient id="paint2_linear" x1="17.488" y1="4.902" x2="34.815" y2="19.442" gradientUnits="userSpaceOnUse"><stop stop-color="#006AB7"/><stop offset=".19" stop-color="#0168B3"/><stop offset=".394" stop-color="#0361A6"/><stop offset=".604" stop-color="#085590"/><stop offset=".817" stop-color="#0D4573"/><stop offset=".9" stop-color="#103D65"/></linearGradient><linearGradient id="paint3_linear" x1="30.343" y1="27.954" x2="45.897" y2="1.013" gradientUnits="userSpaceOnUse"><stop stop-color="#FF6A1B"/><stop offset=".196" stop-color="#FE5219"/><stop offset=".9" stop-color="#F90014"/></linearGradient></defs></svg>